<svg width="3000" height="3000" viewBox="0 0 3000 3000" fill="none" xmlns="http://www.w3.org/2000/svg">
<path d="M1437.71 2740.66C1384.7 2728.85 1326.26 2688.93 1254.08 2615.32C1200.11 2560.23 1161.79 2511.05 1115.65 2437.44C1089.78 2396.09 1074.13 2367.19 1054.81 2324.71C1017.77 2243.76 1002.28 2182.93 1004.67 2129.28C1006.59 2087.76 1017.77 2060.14 1041.88 2037.62C1065.67 2015.27 1096.01 2005.37 1147.9 2002.97C1266.22 1997.71 1357.23 2048.64 1415.03 2152.59C1428.77 2177.5 1451.6 2234.98 1464.05 2276.17C1475.55 2314.02 1491.52 2379.16 1498.38 2415.09C1501.58 2431.86 1505.57 2452.93 1507.16 2462.19C1508.92 2471.45 1511.79 2488.7 1513.55 2500.51C1516.27 2519.36 1517.86 2533.73 1522.81 2581.15C1523.45 2587.38 1523.93 2612.76 1523.93 2637.83C1523.93 2683.18 1523.93 2683.34 1519.62 2696.11C1512.27 2717.67 1502.37 2730.28 1486.73 2737.95C1475.87 2743.22 1454.63 2744.49 1437.71 2740.66Z" fill="#FD9404"/>
<path d="M2502.56 2670.41C2507.19 2678.39 2511.34 2681.74 2520.77 2685.1C2537.21 2691 2561.96 2684.94 2584.95 2669.29C2634.93 2635.28 2687.94 2557.84 2724.35 2465.39C2747.98 2405.35 2764.27 2335.41 2761.07 2307.31C2760.11 2298.85 2759.64 2298.05 2743.99 2281.92C2729.94 2267.39 2728.82 2265.8 2735.05 2269.63C2747.98 2277.61 2762.35 2283.84 2769.22 2284.48C2776.88 2285.43 2771.61 2289.59 2825.42 2241.05C2842.98 2225.24 2865.5 2205.12 2875.4 2196.34C2885.46 2187.56 2900.15 2174.62 2908.13 2167.44C2916.11 2160.41 2935.28 2143.97 2950.6 2130.87C2986.21 2100.69 2991.64 2095.42 2995.47 2088.08C3006.81 2066.36 2996.43 2044.17 2969.13 2031.24C2953.48 2023.73 2941.02 2020.7 2917.87 2018.3C2880.67 2014.47 2834.2 2021.34 2793.33 2036.67C2762.35 2048.32 2738.24 2061.89 2690.02 2095.26C2659.04 2116.5 2646.27 2123.69 2638.92 2123.69C2613.3 2120.09 2609.7 2100.21 2605.07 2081.37C2583.68 1994.51 2537.69 1894.88 2475.1 1799.55C2363.33 1629.5 2224.89 1484.84 2055.32 1360.61C2009.65 1327.4 1924.23 1272.95 1870.74 1243.25C1842.64 1227.6 1773.66 1193.59 1749.07 1183.22C1740.29 1179.54 1730.23 1175.23 1726.71 1173.64C1723.2 1172.04 1704.2 1164.21 1684.4 1156.07C1628.2 1133.08 1619.41 1129.25 1599.45 1119.19C1567.04 1103.22 1552.99 1089.81 1537.98 1060.75C1517.22 1020.99 1506.68 973.406 1503.97 906.982C1500.94 833.053 1508.12 758.167 1526.48 675.616C1543.57 598.015 1566.4 533.029 1601.37 462.294C1627.56 408.963 1650.39 372.877 1685.68 328.169C1703.72 305.495 1708.67 295.436 1708.83 281.704C1708.99 270.846 1706.44 265.577 1699.41 260.787C1689.35 254.24 1652.15 259.669 1618.46 272.443C1530.32 306.134 1428.45 395.551 1325.78 529.516C1247.38 631.866 1197.4 711.702 1097.6 894.208C1066.79 950.413 1028.78 1017 1014.73 1039.03C1000.2 1062.02 984.556 1081.18 964.597 1100.66L950.226 1114.56L956.613 1119.51C965.555 1126.69 987.11 1152.72 998.926 1170.92C1022.4 1206.85 1043.79 1256.66 1058.48 1309.36C1060.56 1316.86 1062.64 1323.41 1063.11 1324.05C1063.59 1324.53 1075.89 1322.93 1090.42 1320.37C1176.32 1305.21 1243.7 1299.62 1339.51 1299.62C1412.8 1299.62 1452.4 1301.85 1501.58 1308.72C1641.29 1328.36 1772.54 1376.26 1866.91 1442.52C1930.14 1486.75 1994.48 1552.22 2030.57 1608.74C2068.09 1667.66 2086.78 1723.07 2086.78 1775.76C2086.78 1839.95 2062.82 1893.12 2020.99 1922.02C2005.82 1932.56 1996.72 1937.03 1971.49 1946.61C1926.46 1963.54 1887.66 1989.08 1843.12 2031.24C1819.48 2053.59 1808.47 2065.25 1780.84 2097.34C1743.32 2140.93 1728.95 2151.31 1696.38 2158.18C1678.97 2161.85 1633.15 2165.2 1520.74 2170.79C1470.6 2173.19 1468.52 2173.34 1469.32 2176.22C1469.8 2177.66 1475.07 2192.51 1480.82 2209.11C1486.73 2225.88 1494.23 2248.71 1497.58 2260.05C1501.1 2271.38 1504.61 2281.44 1505.57 2282.4C1509.24 2286.07 1622.29 2269.15 1705.16 2252.38C1743.16 2244.72 1793.94 2231.63 1810.86 2225.4C1830.18 2218.05 1859.4 2202.25 1892.77 2181.17C1936.36 2153.55 1978.36 2136.3 2026.1 2126.72C2041.59 2123.53 2049.41 2122.89 2075.6 2122.89C2103.38 2122.89 2108.01 2123.21 2118.07 2126.4C2124.3 2128.32 2132.12 2131.83 2135.64 2134.23L2141.86 2138.54L2157.03 2136.46C2179.7 2133.59 2237.67 2132.63 2260.02 2134.7C2316.07 2139.97 2375.62 2156.1 2422.89 2178.77C2498.41 2215.02 2551.9 2261.48 2577.13 2313.06C2586.39 2331.9 2595.17 2359.04 2597.89 2377.41C2600.6 2396.25 2599 2435.53 2594.85 2452.61C2583.84 2497.8 2563.4 2539.31 2522.2 2600.31C2504.64 2626.34 2498.41 2640.07 2498.25 2652.84C2498.09 2660.98 2498.89 2664.34 2502.56 2670.41Z" fill="#FD9404"/>
<path d="M1013.46 2664.02C970.664 2653.8 922.443 2605.9 868.953 2520.47C849.792 2490.14 823.127 2438.08 806.201 2398.32C794.226 2370.22 779.057 2324.87 779.057 2316.89C779.057 2306.83 781.612 2305.07 795.184 2306.19C818.656 2307.95 906.476 2327.59 940.965 2338.77C1005.47 2359.52 1041.24 2393.37 1060.88 2451.81C1067.27 2471.45 1075.57 2505.14 1080.2 2531.65C1085.63 2562.79 1086.43 2608.61 1081.96 2624.9C1076.53 2644.7 1066.15 2658.11 1051.62 2664.18C1044.43 2667.21 1025.91 2667.05 1013.46 2664.02Z" fill="#FD9404"/>
<path d="M1815.65 2305.23C1863.23 2390.82 1952.81 2475.29 2005.5 2484.39C2021.95 2487.26 2035.84 2483.27 2044.14 2473.37C2056.44 2458.84 2056.28 2428.82 2043.5 2374.37C2037.12 2347.39 2035.84 2341.48 2033.29 2329.5L2029.69 2306.91L2044.78 2294.7C2062.66 2280.64 2093.32 2243.44 2107.37 2218.85C2116.63 2202.56 2120.79 2190.11 2120.95 2178.45C2121.11 2166.32 2118.07 2161.37 2106.26 2155.3C2085.34 2144.6 2028.18 2149.71 1982.99 2166.32C1961.75 2173.98 1927.1 2191.07 1900.76 2206.72C1847.27 2238.49 1811.66 2256.21 1801.28 2256.21C1799.36 2256.21 1797.29 2257.33 1796.65 2258.61C1795.37 2262.28 1804.95 2286.07 1815.65 2305.23Z" fill="#FD9404"/>
<path d="M985.035 2293.42C886.996 2276.97 767.561 2253.5 514.001 2201.29C405.903 2179.09 374.607 2171.75 331.176 2158.81C269.702 2140.45 204.715 2114.43 164.318 2091.91C107.475 2060.14 49.3537 2015.75 42.1684 1998.66C38.3363 1989.24 38.975 1981.1 44.4038 1975.35C46.9586 1972.64 50.3117 1970.4 52.0681 1970.4C53.6649 1970.4 64.3629 1972.16 75.6997 1974.39C122.005 1983.17 163.52 1987.96 222.598 1991.32C255.491 1993.07 447.737 1992.6 456.519 1990.68C458.754 1990.2 467.696 1989.4 476.637 1988.76L492.764 1987.81L502.983 1993.39C515.598 2000.26 542.263 2011.12 568.449 2019.9C626.57 2039.38 686.607 2053.11 879.651 2090.95C928.99 2100.53 961.244 2107.4 962.202 2108.2C962.361 2108.52 963 2122.73 963.479 2139.81C964.437 2171.43 967.79 2199.37 974.177 2226.68C977.85 2242.48 989.985 2279.05 994.775 2288.63L997.809 2294.54L993.497 2294.38C990.943 2294.22 987.27 2293.74 985.035 2293.42Z" fill="#FD9404"/>
<path d="M256.928 1965.61C242.398 1964.97 221.64 1963.85 210.623 1963.38C153.46 1960.5 85.7589 1950.44 50.9503 1939.74C18.6964 1929.68 1.93083 1913.4 0.174428 1890.41C-2.22066 1857.03 20.2932 1784.06 52.7067 1719.24C96.1376 1633.01 156.494 1554.29 235.212 1481.96C290.619 1431.03 334.529 1396.22 392.011 1357.74C484.94 1295.31 581.542 1246.13 691.237 1205.09C720.298 1194.23 751.274 1184.01 865.28 1147.29L933.141 1125.41L940.965 1133.88C979.925 1176.99 1007.39 1227.76 1027.99 1294.99C1032.3 1309.52 1036.29 1323.41 1036.45 1326.12L1036.93 1330.75L1015.37 1335.22C991.102 1340.17 917.972 1358.54 897.215 1364.6C722.373 1417.14 577.71 1491.06 487.016 1574.41C438.316 1619.12 400.633 1673.89 384.666 1722.91C375.405 1751.81 372.85 1767.3 373.01 1796.36C373.01 1823.98 375.086 1836.6 383.389 1861.82C394.725 1896.63 423.466 1937.35 450.611 1957.15L458.914 1963.22L450.93 1964.33C438.635 1966.09 286.467 1967.05 256.928 1965.61Z" fill="#FD9404"/>
<path d="M746.324 1924.73C659.782 1915.15 590.005 1871.56 565.256 1811.69C557.591 1793.32 556.793 1775.92 562.541 1758.68C568.13 1741.91 582.021 1720.51 597.669 1705.03C627.368 1675.33 674.791 1652.17 729.718 1640.52C756.703 1634.93 808.756 1633.33 836.539 1637.32C917.972 1649.14 998.926 1688.9 1036.45 1735.52C1050.02 1752.29 1055.93 1765.54 1054.81 1775.6C1052.9 1790.93 1038.84 1813.12 1017.77 1833.88C973.219 1877.79 900.728 1910.68 824.564 1921.86C808.597 1924.1 758.3 1926.01 746.324 1924.73ZM806.202 1912.92C824.085 1908.61 845.96 1897.75 859.373 1886.57C879.172 1870.13 896.097 1845.7 904.72 1821.11C908.711 1809.29 911.586 1805.94 914.779 1784.38C914.779 1757.08 906.59 1745.66 898.013 1726.74C882.525 1692.57 845.321 1662.39 805.244 1651.85C782.889 1645.95 746.484 1646.27 724.609 1652.65C690.279 1662.71 669.522 1674.37 650.361 1694.49C605.813 1741.27 600.543 1807.22 637.587 1856.55C660.9 1887.37 700.498 1909.73 744.728 1916.75C756.224 1918.51 792.789 1916.27 806.202 1912.92Z" fill="#FD9404"/>
<path d="M736.105 1880.98C690.279 1870.93 658.983 1843.78 648.924 1805.14C643.655 1784.86 647.327 1756.92 658.025 1736.8C669.043 1715.88 696.187 1694.49 723.172 1685.55C759.258 1673.57 800.294 1678.36 830.152 1698C860.65 1718.12 878.054 1748.94 878.054 1782.79C877.894 1817.28 855.7 1853.04 824.085 1869.49C798.218 1882.9 765.325 1887.21 736.105 1880.98ZM788.637 1865.82C799.016 1862.14 810.034 1854.48 818.177 1845.54C855.54 1803.86 834.783 1738.08 779.536 1723.71C739.937 1713.33 697.943 1738.88 687.245 1779.59C677.026 1819.19 703.053 1859.75 744.249 1868.05C748.879 1869.01 754.148 1869.97 755.905 1870.29C761.812 1871.08 781.452 1868.53 788.637 1865.82Z" fill="#FD9404"/>
</svg>
